# xmcd
# 
# Track frame offsets:
#     150
#     15206
#     26005
#     41089
#     56308
#     71520
#     85331
#     100996
#     118224
#     129748
#     144208
#     157191
#     170206
# 
# Disc length: 2442
# 
# Revision: 1
# Processed by: cddbd v1.5.2PL0 Copyright (c) Steve Scherf et al.
# Submitted via: BonkEnc v1.0
# 
DISCID=b109880d
DTITLE=Os Monarcas - OS Monarcas
DYEAR=1999
DGENRE=Country
TTITLE0=No Império das Estâncias
TTITLE1=Bamo que Bamo
TTITLE2=Que Prosa é essa
TTITLE3=O Mouro e a Ruana
TTITLE4=Parceiro do Vento
TTITLE5=Vaneira Largada
TTITLE6=Campeiro do Rio Grande
TTITLE7=Minhas Lembranças
TTITLE8=Dona dos Meus Sonhos
TTITLE9=Abrindo Asas
TTITLE10=É Tudo Por Minha Conta
TTITLE11=Loirinha Bonita
TTITLE12=Carcando Vaneirão
EXTD=
EXTT0=
EXTT1=
EXTT2=
EXTT3=
EXTT4=
EXTT5=
EXTT6=
EXTT7=
EXTT8=
EXTT9=
EXTT10=
EXTT11=
EXTT12=
PLAYORDER=
